<svg width="93" height="28" viewBox="0 0 93 28" fill="none" xmlns="http://www.w3.org/2000/svg">
<g clip-path="url(#clip0_418_2664)">
<rect width="93" height="27.7368" rx="13.8684" fill="url(#paint0_linear_418_2664)"/>
<path d="M20.7094 19.0104V16.5504L22.4094 14.8504H27.6494V13.1704L26.7694 12.3104H23.5094L22.6494 13.1704V13.9104H20.7894V12.6904L22.7294 10.7504H27.5494L29.4894 12.6904V20.7104H27.7494V19.0704L26.0294 20.7104H22.4094L20.7094 19.0104ZM25.7694 19.1704L27.6494 17.3704V16.3304H23.2694L22.5694 17.0304V18.4904L23.2694 19.1704H25.7694ZM32.1813 18.7704V6.43045H34.0413V12.5104L35.8213 10.7504H39.3813L41.2813 12.6704V18.7904L39.3813 20.7104H34.1213L32.1813 18.7704ZM38.5013 19.0904L39.4213 18.1704V13.2904L38.5013 12.3704H36.2213L34.0413 14.5504V18.1704L34.9613 19.0904H38.5013ZM43.6805 18.7904V12.6704L45.6005 10.7504H50.9205L52.8205 12.6704V18.7904L50.9205 20.7104H45.6005L43.6805 18.7904ZM50.0605 19.0904L50.9605 18.2104V13.2504L50.0605 12.3704H46.4405L45.5405 13.2504V18.2104L46.4405 19.0904H50.0605ZM55.3234 18.7904V10.7504H57.1834V18.2104L58.0834 19.0904H59.9434L62.2634 16.7704V10.7504H64.1234V20.7104H62.3434V18.7304L60.3634 20.7104H57.2434L55.3234 18.7904ZM67.8273 18.8104V12.3504H66.0273V10.7504H67.8673V7.51045H69.6873V10.7504H72.7873V12.3704H69.6873V18.2104L70.5873 19.0904H72.7873V20.7104H69.7473L67.8273 18.8104Z" fill="white"/>
</g>
<defs>
<linearGradient id="paint0_linear_418_2664" x1="46.5" y1="27.7368" x2="46.5" y2="0" gradientUnits="userSpaceOnUse">
<stop offset="0.435" stop-color="#CD313F"/>
<stop offset="1" stop-color="#972233"/>
</linearGradient>
<clipPath id="clip0_418_2664">
<rect width="93" height="27.7368" fill="white"/>
</clipPath>
</defs>
</svg>
