<svg width="96" height="34" viewBox="0 0 96 34" fill="none" xmlns="http://www.w3.org/2000/svg">
<rect width="96" height="34" rx="17" fill="#F4ADAD"/>
<path d="M26.272 9.56L27.328 9.816C26.768 11.416 25.808 12.92 24.736 13.912C24.56 13.72 24.144 13.32 23.904 13.144C24.928 12.264 25.776 10.952 26.272 9.56ZM29.136 11.496L30.256 11.624C29.488 14.76 27.52 16.536 24.672 17.624C24.528 17.384 24.16 16.952 23.92 16.744C26.688 15.864 28.512 14.264 29.136 11.496ZM25.872 11.16H31.2V12.12H25.392L25.872 11.16ZM18.816 9.512L19.856 9.768C19.328 10.92 18.432 12.056 17.584 12.808C17.408 12.632 16.96 12.328 16.704 12.2C17.584 11.512 18.368 10.536 18.816 9.512ZM18.608 10.552H24.368V11.384H18.192L18.608 10.552ZM26.208 11.912C27.024 14.328 28.912 16.104 31.584 16.792C31.344 17.032 31.024 17.464 30.864 17.768C28.08 16.904 26.208 14.92 25.264 12.136L26.208 11.912ZM23.36 20.92H24.544V24.312H23.36V20.92ZM22.832 16.872L23.84 17.368C23.056 18.04 22.064 18.728 21.296 19.192L20.496 18.744C21.264 18.248 22.272 17.448 22.832 16.872ZM25.888 17.496L26.896 18.072C25.344 19.16 23.216 20.392 21.584 21.16L20.832 20.648C22.48 19.848 24.624 18.504 25.888 17.496ZM18.64 18.696L19.456 18.04C20.624 18.52 22.128 19.304 22.928 19.896L22.048 20.632C21.328 20.056 19.824 19.224 18.64 18.696ZM26.384 19.512L27.184 18.936C28.544 19.56 30.24 20.552 31.104 21.304L30.256 21.96C29.44 21.224 27.76 20.184 26.384 19.512ZM26.144 22.232L26.992 21.576C28.336 21.992 30.08 22.744 31.008 23.352L30.096 24.072C29.248 23.496 27.52 22.696 26.144 22.232ZM17.024 20.488C20.016 20.488 24.896 20.424 29.504 20.312L29.44 21.192C24.944 21.32 20.144 21.448 17.072 21.496L17.024 20.488ZM20.72 21.624L21.776 22.04C20.688 22.84 19.008 23.624 17.664 24.104C17.456 23.896 17.04 23.48 16.768 23.288C18.176 22.904 19.744 22.28 20.72 21.624ZM18.208 12.136H19.168C18.928 13.688 18.56 15.704 18.272 16.92L17.296 16.808C17.6 15.592 17.984 13.608 18.208 12.136ZM20.512 12.392H21.376C21.264 13.544 21.072 15.016 20.896 15.928L20.032 15.896C20.208 14.952 20.416 13.512 20.512 12.392ZM18.56 12.136H23.216V12.856H18.56V12.136ZM16.72 13.768H24.64V14.52H16.72V13.768ZM17.952 15.528H24.624V16.264H17.952V15.528ZM22.896 12.136H23.824C23.824 12.136 23.808 12.408 23.792 12.568C23.6 15.672 23.376 16.824 23.008 17.224C22.768 17.464 22.528 17.576 22.16 17.592C21.856 17.608 21.312 17.608 20.768 17.56C20.752 17.336 20.656 16.984 20.528 16.776C21.088 16.84 21.584 16.84 21.792 16.84C22 16.84 22.112 16.824 22.24 16.68C22.512 16.392 22.704 15.272 22.896 12.28V12.136ZM39.408 16.52H47.28V17.4H39.408V16.52ZM39.12 23.08H47.392V23.992H39.12V23.08ZM41.792 9.576H42.704V11.576H41.792V9.576ZM43.84 9.576H44.752V11.576H43.84V9.576ZM41.2 18.952V20.36H45.392V18.952H41.2ZM40.208 18.168H46.432V21.144H40.208V18.168ZM40.832 13.768V14.872H45.76V13.768H40.832ZM40.832 11.88V12.968H45.76V11.88H40.832ZM39.888 11.048H46.736V15.72H39.888V11.048ZM40.96 21.464L41.824 21.176C42.176 21.736 42.448 22.488 42.544 23.016L41.616 23.352C41.536 22.824 41.28 22.04 40.96 21.464ZM44.672 21.16L45.696 21.448C45.36 22.104 44.992 22.824 44.72 23.32L43.936 23.048C44.192 22.504 44.512 21.688 44.672 21.16ZM34.464 18.536H38.032V19.4H34.464V18.536ZM34.464 20.584H38.032V21.464H34.464V20.584ZM33.904 16.52H37.984V17.4H34.928V24.296H33.904V16.52ZM37.344 16.52H38.384V23.16C38.384 23.672 38.288 23.944 37.936 24.104C37.6 24.28 37.072 24.28 36.224 24.28C36.176 24.008 36.032 23.608 35.904 23.352C36.464 23.368 36.976 23.368 37.12 23.352C37.28 23.352 37.344 23.304 37.344 23.144V16.52ZM33.888 10.136H38.4V15H37.456V11.048H34.816V15H33.888V10.136ZM32.976 14.584H39.344V16.888H38.4V15.464H33.888V16.888H32.976V14.584ZM35.648 12.088H38.064V12.856H36.416V14.92H35.648V12.088ZM41.952 11.368H42.704V15.304H41.952V11.368ZM43.84 11.368H44.592V15.304H43.84V11.368ZM49.536 12.424H62.432V19.96H61.184V13.608H50.736V20.04H49.536V12.424ZM50.176 17.864H61.904V19.032H50.176V17.864ZM55.328 9.56H56.576V24.264H55.328V9.56ZM75.584 12.888L76.848 13.256C74.832 19.128 71.2 22.424 65.376 24.312C65.248 24.008 64.864 23.432 64.608 23.144C70.32 21.512 73.792 18.376 75.584 12.888ZM68.32 12.968C70.048 18.088 73.648 21.768 79.424 23.112C79.136 23.4 78.752 23.944 78.56 24.296C72.624 22.744 69.104 18.936 67.136 13.336L68.32 12.968ZM64.8 12.28H79.264V13.464H64.8V12.28ZM71.36 9.56H72.592V13H71.36V9.56Z" fill="#FEF3F2"/>
</svg>
