<svg width="207" height="67" viewBox="0 0 207 67" fill="none" xmlns="http://www.w3.org/2000/svg">
<path d="M0 10C0 4.47715 4.47715 0 10 0H206.469V67H10C4.47716 67 0 62.5228 0 57V10Z" fill="#972233"/>
<g clip-path="url(#clip0_776_698)">
<path d="M52.5926 21.3453C53.5798 21.3595 54.5205 21.3666 55.4142 21.3666C56.9423 21.3666 58.1386 21.3595 59.0035 21.3453C58.91 22.3195 58.8148 23.6986 58.7179 25.4829C58.6206 27.2673 58.5613 28.6147 58.5397 29.5246C57.7108 29.674 57.0244 29.7825 56.4802 29.8497C55.936 29.9174 55.2818 29.9779 54.518 30.0309C53.7538 30.0843 53.0729 30.111 52.4745 30.111C51.4941 30.111 50.5318 30.0326 49.5877 29.8765C48.6436 29.7204 47.7982 29.4678 47.0526 29.1193C46.3065 28.7712 45.6849 28.2983 45.1877 27.701C44.6905 27.1037 44.3067 26.3966 44.0362 25.5789C43.7658 24.7613 43.6309 23.9152 43.6309 23.0407C43.6309 21.5978 43.9948 20.2575 44.7226 19.0204C45.4505 17.7832 46.4974 16.804 47.8633 16.0823C49.2285 15.361 50.9926 15 53.1546 15C54.733 15 56.4806 15.1882 58.398 15.5652C58.398 16.6032 58.4449 17.7586 58.5385 19.0308C58.0197 18.8601 57.5995 18.7307 57.2791 18.6414C56.9584 18.5525 56.5834 18.4707 56.1548 18.3959C55.7257 18.3212 55.3186 18.2661 54.9331 18.2307C54.5476 18.1952 54.2036 18.1772 53.9006 18.1772C53.1076 18.1772 52.3582 18.2891 51.6519 18.5132C50.9456 18.7374 50.3384 19.0821 49.8302 19.5475C49.322 20.0134 48.942 20.5697 48.6898 21.2163C48.4376 21.8633 48.3115 22.5457 48.3115 23.2636C48.3115 23.9816 48.4558 24.6481 48.7439 25.2204C49.0321 25.7926 49.49 26.228 50.1171 26.5268C50.7442 26.8253 51.4433 26.9747 52.2143 26.9747C52.8558 26.9747 53.5583 26.8825 54.3225 26.6976L54.4456 24.3835C53.9759 24.3622 53.6979 24.3514 53.6112 24.3514L52.4627 24.3622L52.5384 23.0503C52.5456 22.908 52.5562 22.7039 52.571 22.4372C52.5854 22.1705 52.5926 21.8065 52.5926 21.344V21.3453Z" fill="white"/>
<path d="M61.7759 29.8334C61.9566 27.9994 62.0882 26.4638 62.1716 25.2266C62.2545 23.9894 62.3379 22.3457 62.4208 20.2946C62.5037 18.2436 62.5456 16.8841 62.5456 16.2158L62.5346 15.2775C64.2353 15.2917 66.2923 15.2988 68.7065 15.2988C70.9331 15.2988 72.8966 15.2917 74.5973 15.2775L74.5757 15.6281C74.5685 15.7133 74.5503 16.0213 74.5216 16.5527L74.4568 17.7114C74.4424 17.9593 74.4352 18.211 74.4352 18.466C73.0443 18.4093 71.8768 18.3809 70.9327 18.3809C69.8947 18.3809 69.1939 18.3825 68.83 18.3863C68.4661 18.3901 67.8982 18.4059 67.1272 18.4343L66.996 20.8869C67.8466 20.9082 68.8381 20.9191 69.9696 20.9191C70.3733 20.9191 71.4473 20.8944 73.192 20.8444C73.12 21.7543 73.0515 22.8387 72.9867 24.0967C71.7405 24.0825 70.7825 24.0754 70.1126 24.0754C69.1186 24.0754 68.0057 24.1005 66.7739 24.1501L66.6452 26.7413H67.8876C68.2549 26.7413 69.0149 26.7305 70.1672 26.7092L72.4036 26.6558C72.735 26.6487 73.2893 26.6203 74.0675 26.5706C73.9812 27.6229 73.9088 28.7106 73.8513 29.8338C72.0926 29.8197 70.1647 29.8126 68.0675 29.8126L63.3107 29.823L61.7755 29.8338L61.7759 29.8334Z" fill="white"/>
<path d="M80.8677 29.8334C81.2257 26.3782 81.4407 22.5749 81.5122 18.423L76.9111 18.5403L76.9653 17.3566C76.9941 16.7238 77.0157 16.0309 77.03 15.2771C79.076 15.2913 81.461 15.2988 84.1845 15.2988L86.8538 15.2879H89.4478L90.8527 15.2771L90.7879 16.3218C90.7591 16.882 90.7392 17.3453 90.7287 17.7114C90.7177 18.0774 90.7126 18.3537 90.7126 18.5403C89.1714 18.4623 87.9007 18.423 86.8999 18.423H86.1437C86.0349 19.679 85.9516 20.8393 85.8936 21.9037C85.8136 23.4293 85.7523 24.9106 85.7083 26.3477C85.6647 27.7848 85.6431 28.9469 85.6431 29.8338C84.4616 29.8196 83.6982 29.8125 83.3525 29.8125C83.0428 29.8125 82.2146 29.8196 80.8677 29.8338V29.8334Z" fill="white"/>
<path d="M96.0576 25.6532C96.1439 24.6185 96.1981 23.6305 96.2197 22.6885C97.2429 22.7169 98.209 22.731 99.1171 22.731C100.025 22.731 101.009 22.7169 102.025 22.6885C101.939 23.6088 101.885 24.5972 101.863 25.6532C100.839 25.632 99.8699 25.6211 98.955 25.6211C98.0401 25.6211 97.0741 25.632 96.0576 25.6532Z" fill="white"/>
<path d="M111.906 29.8334C112.264 26.3782 112.479 22.5749 112.55 18.423L107.949 18.5403L108.003 17.3566C108.032 16.7238 108.054 16.0309 108.068 15.2771C110.114 15.2913 112.499 15.2988 115.223 15.2988L117.892 15.288H120.486L121.891 15.2771L121.826 16.3218C121.797 16.882 121.777 17.3453 121.767 17.7114C121.756 18.0774 121.751 18.3537 121.751 18.5403C120.21 18.4623 118.939 18.423 117.938 18.423H117.182C117.073 19.679 116.99 20.8393 116.932 21.9037C116.852 23.4293 116.79 24.9106 116.746 26.3477C116.703 27.7848 116.681 28.9469 116.681 29.8338C115.5 29.8197 114.736 29.8126 114.391 29.8126C114.081 29.8126 113.253 29.8197 111.906 29.8338L111.906 29.8334Z" fill="white"/>
<path d="M133.846 26.6133C133.752 27.0398 133.572 28.0708 133.306 29.7058C132.469 29.8694 131.767 29.9775 131.197 30.0309C130.628 30.0843 130.052 30.1111 129.468 30.1111C128.61 30.1111 127.821 30.0522 127.1 29.9353C126.379 29.818 125.758 29.6106 125.235 29.3122C124.712 29.0137 124.274 28.6427 123.922 28.199C123.568 27.7553 123.3 27.2277 123.116 26.617C122.933 26.0064 122.841 25.3778 122.841 24.7312C122.841 23.8221 123.024 22.9327 123.392 22.0624C123.76 21.1921 124.233 20.5122 124.814 20.0221C125.394 19.5321 126.062 19.184 126.819 18.9782C127.576 18.7725 128.35 18.6689 129.143 18.6689C129.936 18.6689 130.749 18.7633 131.495 18.9515C132.241 19.1402 132.873 19.4687 133.392 19.9378C133.911 20.407 134.281 20.9367 134.501 21.5269C134.72 22.1171 134.83 22.7532 134.83 23.4356C134.83 23.8409 134.783 24.2925 134.69 24.7901L127.111 24.8009C127.104 24.914 127.1 25.0167 127.1 25.109C127.1 25.8736 127.378 26.4363 127.933 26.7978C128.487 27.1588 129.165 27.3391 129.965 27.3391C130.441 27.3391 130.983 27.284 131.592 27.1738C132.201 27.0636 132.953 26.8771 133.846 26.6141L133.846 26.6133ZM127.197 23.1685H130.765C130.772 23.0479 130.776 22.9443 130.776 22.8592C130.776 22.4898 130.709 22.173 130.575 21.91C130.442 21.6471 130.251 21.4551 130.002 21.334C129.754 21.2134 129.474 21.1529 129.165 21.1529C128.948 21.1529 128.739 21.1867 128.537 21.2543C128.336 21.3219 128.154 21.4213 127.992 21.5527C127.829 21.6842 127.694 21.8353 127.586 22.006C127.478 22.1768 127.399 22.342 127.348 22.5019C127.298 22.6618 127.247 22.8842 127.197 23.1685H127.197Z" fill="white"/>
<path d="M146.656 26.4317C146.62 26.7159 146.533 27.2385 146.397 27.9994L146.116 29.7058C144.984 29.9758 143.878 30.1111 142.797 30.1111C142.011 30.1111 141.323 30.0326 140.732 29.8765C140.033 29.6916 139.406 29.3648 138.851 28.8956C138.281 28.4123 137.867 27.84 137.608 27.1788C137.297 26.4042 137.143 25.5364 137.143 24.5768C137.143 23.6952 137.294 22.8458 137.597 22.0282C137.899 21.2109 138.346 20.5372 138.937 20.0075C139.528 19.4779 140.184 19.1222 140.905 18.9411C141.626 18.7599 142.422 18.6689 143.294 18.6689C143.806 18.6689 144.321 18.6957 144.84 18.7491C145.359 18.8025 146 18.9181 146.764 19.0955L146.786 19.341C146.807 19.5968 146.823 19.8581 146.834 20.1248C146.845 20.3915 146.869 20.8127 146.905 21.3887L146.969 22.3379C145.938 21.9822 145.027 21.8048 144.234 21.8048C143.664 21.8048 143.165 21.9134 142.737 22.13C142.308 22.347 141.991 22.6597 141.786 23.0683C141.58 23.4774 141.477 23.9519 141.477 24.4921C141.477 25.0322 141.569 25.498 141.753 25.8678C141.937 26.2376 142.23 26.5148 142.634 26.6997C143.038 26.8846 143.481 26.9768 143.964 26.9768C144.209 26.9768 144.499 26.9518 144.834 26.9021C145.169 26.8524 145.461 26.7973 145.71 26.7368C145.958 26.6763 146.274 26.5753 146.655 26.433L146.656 26.4317Z" fill="white"/>
<path d="M149.181 29.8335C149.296 28.7741 149.38 27.9034 149.43 27.221C149.531 25.7918 149.636 24.1323 149.745 22.241C149.81 20.9897 149.859 19.7884 149.892 18.6368C149.924 17.4852 149.94 16.3653 149.94 15.2776C150.855 15.2918 151.6 15.2989 152.177 15.2989C152.954 15.2989 153.689 15.2918 154.381 15.2776L154.156 17.8584C154.121 18.2849 154.064 19.1485 153.985 20.4496C154.223 20.1511 154.417 19.9286 154.569 19.783C154.72 19.6373 154.887 19.5021 155.071 19.3777C155.255 19.2533 155.442 19.1485 155.633 19.063C155.824 18.9778 156.044 18.9031 156.292 18.8388C156.54 18.775 156.814 18.7253 157.113 18.6894C157.412 18.6539 157.72 18.636 158.037 18.636C158.649 18.636 159.242 18.7036 159.814 18.8384C160.387 18.9736 160.875 19.2099 161.278 19.5476C161.682 19.8852 161.956 20.2621 162.099 20.6779C162.244 21.0936 162.316 21.5507 162.316 22.0482C162.316 22.2402 162.31 22.4944 162.3 22.8108C162.289 23.1272 162.266 23.527 162.23 24.0104L161.993 27.6042C161.964 28.052 161.948 28.4235 161.945 28.7186C161.941 29.0137 161.939 29.3852 161.939 29.8331C161.19 29.8189 160.472 29.8118 159.787 29.8118C159.015 29.8118 158.233 29.8189 157.44 29.8331C157.562 28.8877 157.669 27.7983 157.762 26.5644C157.855 25.331 157.902 24.4123 157.902 23.8079C157.902 23.1397 157.759 22.6705 157.474 22.4005C157.189 22.1304 156.812 21.9952 156.344 21.9952C155.925 21.9952 155.553 22.0803 155.229 22.251C154.94 22.4005 154.688 22.6313 154.471 22.9443C154.284 23.2073 154.129 23.588 154.006 24.0855C153.862 24.6899 153.75 25.5823 153.671 26.7623C153.629 27.4163 153.586 28.4402 153.543 29.8335C152.816 29.8193 152.136 29.8122 151.503 29.8122C150.869 29.8122 150.088 29.8193 149.181 29.8335Z" fill="white"/>
<path d="M36.1158 46.1733L35.3122 46.8106C35.1154 46.4997 34.9 46.1983 34.666 45.9074C31.987 46.2184 29.5043 46.4058 27.2188 46.4692L27 45.606C27.997 45.2884 29.079 44.2061 30.2457 42.3595L31.2985 42.5653C30.6066 43.6693 29.7844 44.6527 28.8314 45.5159C30.1915 45.4658 31.9074 45.3318 33.9796 45.1143C33.5489 44.646 33.0267 44.166 32.4127 43.6743L33.2163 43.067C34.4608 44.131 35.4273 45.1661 36.1158 46.1729V46.1733ZM35.195 51.412H34.2488V50.9504H28.7701V51.412H27.8188V47.1621H35.195V51.412ZM34.2488 50.0572V48.0553H28.7701V50.0572H34.2488Z" fill="white"/>
<path d="M49.0427 51.0656H39.9473V50.1373H44.0117V43.7599H40.395V42.8015H48.6259V43.7599H45.0091V50.1373H49.0431V51.0656H49.0427Z" fill="white"/>
<path d="M54.1386 47.2422C54.0844 48.1956 53.9418 49.1205 53.7112 50.0171L52.9482 49.6055C53.1416 48.9331 53.2737 48.0937 53.3452 47.0866L54.1386 47.2422ZM54.1488 45.0442L53.4061 45.3201C53.2669 44.4135 53.1315 43.7561 52.999 43.3483L53.7315 43.0774C53.9283 43.7532 54.0671 44.4089 54.1488 45.0442ZM56.3771 46.5448H55.3243V51.392H54.4289V46.5448H53.0096V45.6365H54.4289V42.4401H55.3243V45.6365H56.3771V46.5448ZM56.565 43.3984C56.5075 44.0007 56.3987 44.641 56.2396 45.3201L55.5223 45.0843C55.6649 44.5392 55.7648 43.9085 55.8224 43.1927L56.565 43.3984ZM56.5752 49.4499L55.7716 49.7057C55.7614 48.8726 55.6988 48.0616 55.5833 47.2723L56.3259 47.0866C56.4651 48.0967 56.5481 48.8847 56.5752 49.4499ZM61.637 50.5088C61.637 50.7763 61.5435 51.0022 61.3573 51.1862C61.1707 51.3703 60.7112 51.4421 59.9787 51.402L59.6583 50.5388L60.5639 50.5288C60.6756 50.5288 60.7319 50.4787 60.7319 50.3782V49.8213H57.8273C57.6745 50.4838 57.4372 51.0389 57.1151 51.4872L56.4486 50.8298C56.8456 50.298 57.044 49.5438 57.044 48.5666V46.675H61.6375V50.5084L61.637 50.5088ZM62.0949 46.1633H56.6568V45.4307H58.8949V44.909H56.9619V44.2516H58.8949V43.7799H56.7736V43.0374H58.8949V42.4651H59.8056V43.0374H61.9371V43.7799H59.8056V44.2516H61.7741V44.909H59.8056V45.4307H62.0949V46.1633ZM60.7315 49.1539V48.6071H57.9284C57.9284 48.7912 57.9217 48.9736 57.9081 49.1539H60.7315ZM60.7315 47.9197V47.428H57.9386V47.9197H60.7315Z" fill="white"/>
<path d="M73.2976 44.969C72.0598 46.1699 70.8678 47.0614 69.7214 47.6433C70.0333 47.6633 70.3659 47.6733 70.7184 47.6733C71.4373 47.6733 71.8757 47.645 72.0336 47.5882C72.1914 47.5314 72.2888 47.1733 72.326 46.5142L73.1909 46.8202C73.1131 47.4525 73.0069 47.8666 72.8731 48.0619C72.739 48.2577 72.568 48.3779 72.3594 48.4234C72.1508 48.4685 71.6413 48.491 70.831 48.491C70.0985 48.491 69.622 48.4785 69.4015 48.4535C69.181 48.4284 68.9961 48.3124 68.8472 48.1049C68.1993 48.4059 67.4262 48.6968 66.5274 48.9781L66.0137 48.2807C66.9666 48.0064 67.8705 47.6633 68.7249 47.2522V44.7332H69.6V46.7805C70.5055 46.3055 71.5194 45.5313 72.6421 44.4573L73.2984 44.969H73.2976ZM68.4646 45.4858C67.8438 46.3322 67.2675 46.9692 66.7352 47.3974L66.0992 46.8102C66.6789 46.3619 67.2438 45.7349 67.7931 44.9285L68.4646 45.4853V45.4858ZM74.8387 45.3305H73.9128V44.0357H67.2133V45.3305H66.2722V43.193H70.0164C69.9757 42.9956 69.8873 42.7864 69.7519 42.5656L70.7336 42.3799C70.8965 42.7414 71.0083 43.0123 71.0692 43.1926H74.8387V45.3301V45.3305ZM74.1519 51.412H73.2667V51.1661H67.025V49.1538H67.9408V50.343H70.1281V48.7723H71.0235V50.343H73.2667V49.1538H74.1519V51.412ZM71.39 45.3405L70.6524 45.742C70.3676 45.2604 70.1099 44.8772 69.8793 44.5929L70.5965 44.1714C70.9152 44.5562 71.1796 44.9456 71.39 45.3405ZM75.1392 47.3624L74.4422 47.8491C74.0351 47.2639 73.5011 46.6332 72.8397 45.9574L73.5265 45.4657C74.1879 46.1382 74.7253 46.7701 75.1392 47.3624Z" fill="white"/>
<path d="M83.3284 43.1426C82.8536 43.2999 82.3399 43.4218 81.7872 43.509V44.8389H83.0999V45.702H81.7872V45.988C82.3331 46.5498 82.7977 47.132 83.1811 47.7339L82.5349 48.4114C82.2874 47.923 82.0381 47.5064 81.7872 47.1621V51.412H80.8816V47.3428C80.3967 48.2761 79.927 48.9586 79.4725 49.3902L78.9436 48.5775C79.6693 47.855 80.2985 46.8966 80.8309 45.7025H79.0451V44.8393H80.8816V43.6551C80.4407 43.7219 79.9778 43.7703 79.4928 43.8008L79.101 42.9677C80.4267 42.9042 81.6869 42.7051 82.8807 42.3704L83.3284 43.143V43.1426ZM88.1203 48.8229L87.1538 48.9686V51.4325H86.233V49.0842L83.0994 49.5008L83.0182 48.5975L86.2334 48.1659V42.476H87.1542V48.0457L88.0902 47.9301L88.1207 48.8233L88.1203 48.8229ZM85.7751 46.9964L85.1492 47.6838C84.7117 47.132 84.0621 46.5431 83.201 45.9178L83.8065 45.2504C84.6474 45.8627 85.3037 46.4446 85.7751 46.9964ZM85.9228 44.5074L85.2969 45.1749C84.7134 44.5258 84.0998 43.964 83.4553 43.489L84.1015 42.8416C84.7967 43.3734 85.4036 43.9289 85.9228 44.5074Z" fill="white"/>
<path d="M95.4355 47.0365C95.042 47.2172 94.681 47.3675 94.3518 47.4881V50.4688C94.3518 50.763 94.279 50.9905 94.133 51.1512C93.987 51.3119 93.7429 51.3946 93.4005 51.3996C93.0578 51.4046 92.7628 51.4021 92.5153 51.3921L92.2254 50.4988C92.5919 50.5122 92.9071 50.5189 93.1716 50.5189C93.2359 50.5189 93.2977 50.4896 93.3574 50.4312C93.4166 50.3728 93.4462 50.3068 93.4462 50.2329V47.8296C93.0628 47.9636 92.6663 48.0821 92.2559 48.186L92.0066 47.3429C92.6579 47.1488 93.1377 46.9914 93.4462 46.8712V44.9696H92.1234V44.0964H93.4462V42.4305H94.3518V44.0964H95.3081V44.9696H94.3518V46.5152C94.623 46.4284 94.9214 46.3044 95.2472 46.1437L95.4355 47.0369V47.0365ZM101.24 50.7447L100.706 51.5173C99.7222 51.0924 98.9097 50.619 98.269 50.0973C97.523 50.6491 96.631 51.1224 95.5934 51.5173L95.0796 50.6946C96.0834 50.3602 96.928 49.9554 97.6131 49.4804C97.0334 48.8514 96.5395 47.9686 96.1329 46.8311H95.777V45.968H97.8425V44.6331H95.6348V43.77H97.8425V42.4652H98.7785V43.77H100.966V44.6331H98.7785V45.968H100.706V46.8311C100.221 47.9819 99.6413 48.8718 98.9668 49.5004C99.5398 49.9687 100.298 50.3836 101.241 50.7447H101.24ZM99.6832 46.8307H97.1244C97.3821 47.5967 97.7807 48.2824 98.3198 48.8881C98.886 48.3263 99.3405 47.6405 99.6832 46.8307Z" fill="white"/>
<path d="M108.52 50.5589C108.52 51.1374 108.179 51.4271 107.498 51.4271C107.348 51.4271 107.192 51.4187 107.029 51.402L106.689 50.4988C106.814 50.5054 107.081 50.5088 107.487 50.5088C107.586 50.5088 107.635 50.462 107.635 50.3681V47.8892C107.316 48.2841 107.031 48.6134 106.78 48.8776L106.47 48.3609C106.365 49.7992 106.143 50.8314 105.804 51.4567L105.051 50.8798C105.414 50.0872 105.595 48.9531 105.595 47.4776V42.6154H108.52V50.5585V50.5589ZM107.635 45.5964V43.509H106.48V44.6731L107.009 44.2916C107.283 44.77 107.492 45.2049 107.635 45.5964ZM107.635 46.4392V45.8519L107.019 46.3085C106.928 45.917 106.748 45.4704 106.48 44.9687V47.8487C106.911 47.4038 107.295 46.9338 107.635 46.4387V46.4392ZM114.263 50.6741L113.8 51.4567C112.935 51.2426 112.13 50.8615 111.384 50.3126C110.783 50.7542 110.041 51.1357 109.156 51.4567L108.647 50.6741C109.397 50.4566 110.07 50.1423 110.667 49.7308C110.155 49.1956 109.731 48.4715 109.395 47.5582H108.938V46.695H113.561V47.5582C113.12 48.4681 112.636 49.1773 112.107 49.6857C112.7 50.1039 113.419 50.4332 114.263 50.6741H114.263ZM114.156 46.1332H112.676C112.473 46.1332 112.307 46.0614 112.18 45.9174C112.053 45.7734 111.989 45.6081 111.989 45.4207V43.5641H110.54V44.0258C110.54 45.0526 110.204 45.854 109.532 46.4291L108.77 45.8419C109.332 45.427 109.614 44.8117 109.614 43.9953V42.6905H112.895V45.1239C112.895 45.2341 112.951 45.2896 113.063 45.2896H114.157V46.1328L114.156 46.1332ZM112.508 47.5582H110.377C110.661 48.244 111.011 48.7691 111.424 49.1339C111.892 48.6188 112.254 48.0937 112.508 47.5582Z" fill="white"/>
<path d="M121.145 42.5757C121.033 42.89 120.858 43.3116 120.621 43.84L120.26 44.6226V51.4567H119.314V46.2033C119.036 46.6015 118.778 46.9158 118.54 47.1466L118.042 46.1833C118.961 45.1498 119.677 43.8817 120.189 42.3799L121.145 42.5757ZM127.285 45.5259L126.68 46.359L126.471 46.2033C126.478 46.5815 126.442 47.3866 126.364 48.6192C126.286 49.8518 126.216 50.5735 126.153 50.7842C126.09 50.995 125.965 51.1624 125.776 51.286C125.588 51.4095 125.311 51.4717 124.945 51.4717C124.734 51.4717 124.389 51.4667 123.907 51.4567L123.668 50.5684C124.01 50.5952 124.273 50.6085 124.456 50.6085C124.884 50.6085 125.139 50.5684 125.222 50.4883C125.305 50.4082 125.374 49.8781 125.428 48.8976C125.482 47.9176 125.509 47.2585 125.509 46.9208H123.937C123.828 49.0349 122.92 50.5639 121.21 51.5072L120.584 50.7746C122.083 50.0288 122.889 48.744 123.001 46.9208H121.322V46.1232C121.258 46.1866 121.164 46.2555 121.042 46.3289L120.488 45.5563C121.325 44.8572 121.992 43.8271 122.487 42.4655L123.438 42.7013C122.848 44.1597 122.182 45.2721 121.439 46.038H126.282C125.559 45.3422 125.022 44.479 124.669 43.4489H123.814V42.5757H125.376C125.698 43.9139 126.334 44.8973 127.284 45.5263L127.285 45.5259Z" fill="white"/>
<path d="M140.201 44.2916H135.139C135.004 44.5625 134.823 44.8572 134.595 45.1748H139.484V50.6845C139.484 50.912 139.422 51.0877 139.298 51.2112C139.174 51.3348 138.987 51.4003 138.736 51.407C138.485 51.4137 138.238 51.417 137.994 51.417C137.604 51.417 137.283 51.412 137.032 51.402L136.63 50.4887C137.071 50.5088 137.636 50.5188 138.324 50.5188C138.47 50.5188 138.543 50.4403 138.543 50.2829V49.3396H133.899C133.722 50.0655 133.361 50.7563 132.815 51.412L131.93 50.9203C132.679 50.111 133.054 49.353 133.054 48.6472V46.9964C132.593 47.4714 132.138 47.8512 131.691 48.1354L131.024 47.438C132.269 46.6082 133.272 45.5597 134.036 44.2916H131.136V43.3984H134.524C134.745 43.0136 134.904 42.6742 135.002 42.3799L135.964 42.5356C135.876 42.7965 135.753 43.0841 135.597 43.3988H140.201V44.292V44.2916ZM138.543 46.8607V46.048H134.005V46.8607H138.543ZM138.543 48.4965V47.6938H134.005V48.4965H138.543Z" fill="white"/>
<path d="M146.733 45.5764C147.313 46.4029 147.603 47.1838 147.603 47.9197C147.603 48.8797 147.125 49.3597 146.169 49.3597C146.067 49.3597 145.957 49.3564 145.838 49.3497L145.579 48.4314C145.711 48.4548 145.865 48.4665 146.042 48.4665C146.286 48.4665 146.452 48.4331 146.54 48.3663C146.628 48.2995 146.673 48.1655 146.673 47.9648C146.673 47.2089 146.364 46.4446 145.747 45.6716C145.943 45.1933 146.183 44.4808 146.464 43.5341H145.319V51.4321H144.424V42.6158H147.43V43.5341C147.207 44.2833 146.974 44.9641 146.733 45.5764H146.733ZM152.715 46.9309H148.986V50.2325C149.465 50.0885 149.975 49.8898 150.517 49.6352L150.568 50.5935C149.629 50.9951 148.844 51.271 148.213 51.4217L147.877 50.6541C148.01 50.5706 148.076 50.4366 148.076 50.2525V42.6459H152.715V46.9309ZM151.784 44.3873V43.469H148.986V44.3873H151.784ZM151.784 46.1132V45.1949H148.986V46.1132H151.784ZM153.295 50.7346L152.766 51.4872C151.288 50.604 150.319 49.3013 149.861 47.5783L150.701 47.3224C150.826 47.7607 150.981 48.1488 151.164 48.4865C151.615 48.1655 152.056 47.754 152.486 47.2523L153.153 47.8496C152.637 48.4652 152.134 48.9486 151.642 49.2996C152.08 49.8585 152.631 50.3368 153.295 50.7346H153.295Z" fill="white"/>
<path d="M161.037 42.711C160.359 44.5208 159.245 46.041 157.695 47.2719L157.1 46.4893C158.494 45.4558 159.497 44.0926 160.111 42.4L161.037 42.711ZM165.681 50.92L164.852 51.4868C164.659 51.0385 164.464 50.6537 164.267 50.3327C162.663 50.7042 160.701 51.0435 158.381 51.3511L158.112 50.5685C159.004 49.9328 160.048 48.1902 161.245 45.3402L162.192 45.6161C161.347 47.5662 160.479 49.1218 159.587 50.2826C161.151 50.1052 162.554 49.8627 163.799 49.5551C163.589 49.1974 163.228 48.6785 162.715 47.9994L163.483 47.5077C164.348 48.5784 165.081 49.7154 165.681 50.92H165.681ZM166.363 46.5348L165.809 47.3424C164.52 46.4425 163.558 45.1315 162.924 43.4085H162.08V42.5353H163.591C164.123 44.2883 165.047 45.6211 166.363 46.5344V46.5348Z" fill="white"/>
<path d="M178.96 50.2228C178.96 51.0221 178.563 51.422 177.769 51.422C177.067 51.422 176.554 51.4153 176.228 51.4019L175.959 50.4787C176.732 50.4954 177.269 50.5037 177.571 50.5037C177.873 50.5037 178.019 50.4169 178.019 50.2428V43.4789H170.226V42.6358H178.96V50.2224L178.96 50.2228ZM177.164 45.1948H170.444V44.3617H177.164V45.1948ZM176.498 49.6155H171.049V46.1532H176.498V49.6155ZM175.552 48.7623V46.9959H171.975V48.7623H175.552Z" fill="white"/>
</g>
<defs>
<clipPath id="clip0_776_698">
<rect width="151.959" height="36.5173" fill="white" transform="translate(27 15)"/>
</clipPath>
</defs>
</svg>
