<svg width="66" height="44" viewBox="0 0 66 44" fill="none" xmlns="http://www.w3.org/2000/svg">
<g clip-path="url(#clip0_558_323)">
<path d="M5.89605 13.5312C6.43541 13.5391 6.94934 13.543 7.4376 13.543C8.27241 13.543 8.92597 13.5391 9.39852 13.5312C9.34743 14.0733 9.29541 14.8408 9.24247 15.8338C9.18929 16.8268 9.15693 17.5766 9.14514 18.083C8.69225 18.1661 8.31726 18.2265 8.01996 18.2639C7.72265 18.3016 7.36524 18.3352 6.94795 18.3647C6.53043 18.3945 6.15845 18.4093 5.83155 18.4093C5.29589 18.4093 4.77018 18.3657 4.2544 18.2788C3.73863 18.1919 3.27672 18.0514 2.86937 17.8574C2.46179 17.6637 2.12218 17.4005 1.85053 17.0681C1.57889 16.7357 1.3692 16.3423 1.22148 15.8872C1.07375 15.4322 1 14.9613 1 14.4747C1 13.6717 1.19882 12.9258 1.59646 12.2374C1.9941 11.5489 2.56605 11.0039 3.31232 10.6023C4.05813 10.2009 5.02194 10 6.20307 10C7.06539 10 8.02019 10.1048 9.06769 10.3145C9.06769 10.8922 9.09335 11.5352 9.14445 12.2432C8.86101 12.1482 8.63144 12.0761 8.45644 12.0264C8.2812 11.977 8.07637 11.9314 7.84218 11.8899C7.60775 11.8483 7.38535 11.8176 7.17474 11.7979C6.96413 11.7781 6.77618 11.7681 6.61065 11.7681C6.17741 11.7681 5.76798 11.8304 5.38213 11.9551C4.99628 12.0799 4.66453 12.2717 4.38687 12.5307C4.10922 12.79 3.90161 13.0996 3.76383 13.4594C3.62604 13.8194 3.55715 14.1992 3.55715 14.5987C3.55715 14.9983 3.63598 15.3692 3.79342 15.6877C3.95086 16.0061 4.201 16.2484 4.54362 16.4147C4.88623 16.5808 5.26815 16.664 5.68937 16.664C6.03985 16.664 6.42362 16.6126 6.84114 16.5097L6.90842 15.222C6.6518 15.2101 6.49991 15.2041 6.45252 15.2041L5.82508 15.2101L5.86646 14.48C5.87039 14.4008 5.87617 14.2872 5.88426 14.1388C5.89212 13.9904 5.89605 13.7878 5.89605 13.5305V13.5312Z" fill="white"/>
<path d="M10.9123 18.2548C11.0111 17.2342 11.083 16.3796 11.1285 15.6911C11.1738 15.0026 11.2194 14.0879 11.2647 12.9465C11.31 11.805 11.3329 11.0485 11.3329 10.6766L11.3269 10.1544C12.256 10.1623 13.3798 10.1663 14.6987 10.1663C15.9152 10.1663 16.9879 10.1623 17.917 10.1544L17.9052 10.3495C17.9013 10.3969 17.8914 10.5683 17.8757 10.864L17.8403 11.5089C17.8324 11.6468 17.8285 11.7869 17.8285 11.9288C17.0686 11.8972 16.4307 11.8814 15.915 11.8814C15.3479 11.8814 14.965 11.8824 14.7662 11.8845C14.5674 11.8866 14.2571 11.8954 13.8359 11.9112L13.7642 13.2761C14.2289 13.2879 14.7706 13.294 15.3888 13.294C15.6093 13.294 16.1961 13.2803 17.1493 13.2524C17.11 13.7588 17.0725 14.3622 17.0371 15.0623C16.3563 15.0544 15.8329 15.0505 15.4669 15.0505C14.9239 15.0505 14.3159 15.0644 13.6429 15.0921L13.5726 16.5341H14.2514C14.452 16.5341 14.8672 16.528 15.4968 16.5162L16.7186 16.4865C16.8996 16.4825 17.2024 16.4667 17.6276 16.4391C17.5804 17.0247 17.5409 17.63 17.5095 18.2551C16.5486 18.2472 15.4954 18.2432 14.3496 18.2432L11.7509 18.249L10.9121 18.2551L10.9123 18.2548Z" fill="white"/>
<path d="M21.3452 18.2547C21.5408 16.3319 21.6582 14.2153 21.6973 11.9048L19.1836 11.97L19.2132 11.3113C19.2289 10.9591 19.2407 10.5736 19.2486 10.1541C20.3663 10.162 21.6693 10.1661 23.1572 10.1661L24.6155 10.1601H26.0327L26.8002 10.1541L26.7649 10.7355C26.7491 11.0472 26.7383 11.305 26.7325 11.5087C26.7265 11.7124 26.7237 11.8662 26.7237 11.97C25.8817 11.9266 25.1875 11.9048 24.6407 11.9048H24.2276C24.1682 12.6037 24.1226 13.2495 24.091 13.8418C24.0473 14.6908 24.0138 15.5151 23.9897 16.3149C23.9659 17.1146 23.9541 17.7613 23.9541 18.2549C23.3086 18.247 22.8916 18.2431 22.7027 18.2431C22.5335 18.2431 22.081 18.247 21.3452 18.2549V18.2547Z" fill="white"/>
<path d="M29.6426 15.9286C29.6897 15.3528 29.7193 14.8029 29.7311 14.2787C30.2901 14.2945 30.8179 14.3024 31.314 14.3024C31.8102 14.3024 32.3477 14.2945 32.9028 14.2787C32.8556 14.7909 32.826 15.3409 32.8142 15.9286C32.255 15.9167 31.7253 15.9107 31.2255 15.9107C30.7257 15.9107 30.1979 15.9167 29.6426 15.9286Z" fill="white"/>
<path d="M38.3003 18.2547C38.4958 16.3319 38.6133 14.2153 38.6524 11.9048L36.1387 11.97L36.1683 11.3113C36.184 10.9591 36.1958 10.5736 36.2036 10.1541C37.3214 10.162 38.6244 10.1661 40.1123 10.1661L41.5706 10.1601H42.9878L43.7553 10.1541L43.7199 10.7355C43.7042 11.0472 43.6934 11.305 43.6876 11.5087C43.6816 11.7124 43.6788 11.8662 43.6788 11.97C42.8368 11.9266 42.1426 11.9048 41.5958 11.9048H41.1827C41.1233 12.6037 41.0777 13.2495 41.046 13.8418C41.0024 14.6908 40.9688 15.5151 40.9448 16.3149C40.921 17.1146 40.9092 17.7613 40.9092 18.2549C40.2637 18.247 39.8467 18.2431 39.658 18.2431C39.4888 18.2431 39.0364 18.247 38.3005 18.2549L38.3003 18.2547Z" fill="white"/>
<path d="M50.2859 16.4628C50.2348 16.7002 50.1363 17.2739 49.9907 18.1838C49.5338 18.2748 49.1498 18.335 48.8389 18.3647C48.5277 18.3945 48.2128 18.4093 47.8938 18.4093C47.4252 18.4093 46.994 18.3766 46.6003 18.3115C46.2066 18.2463 45.867 18.1308 45.5815 17.9647C45.296 17.7987 45.0567 17.5922 44.8639 17.3452C44.6708 17.0983 44.5243 16.8047 44.4239 16.4649C44.3236 16.1251 44.2734 15.7752 44.2734 15.4154C44.2734 14.9095 44.3738 14.4145 44.5747 13.9302C44.7756 13.4459 45.0343 13.0675 45.3512 12.7948C45.6682 12.5221 46.0335 12.3284 46.4468 12.2139C46.8602 12.0994 47.2835 12.0417 47.7167 12.0417C48.15 12.0417 48.5938 12.0942 49.0014 12.199C49.409 12.304 49.7544 12.4868 50.0381 12.7479C50.3215 13.009 50.5233 13.3037 50.6435 13.6322C50.7635 13.9606 50.8236 14.3146 50.8236 14.6944C50.8236 14.92 50.798 15.1713 50.7469 15.4482L46.6066 15.4542C46.6026 15.5172 46.6006 15.5743 46.6006 15.6256C46.6006 16.0512 46.752 16.3643 47.0553 16.5655C47.3584 16.7664 47.7285 16.8667 48.1657 16.8667C48.4255 16.8667 48.7217 16.8361 49.0546 16.7747C49.3873 16.7134 49.7978 16.6096 50.2861 16.4633L50.2859 16.4628ZM46.6535 14.5458H48.6026C48.6066 14.4786 48.6084 14.421 48.6084 14.3736C48.6084 14.1681 48.5719 13.9918 48.4991 13.8454C48.4262 13.6991 48.3217 13.5922 48.186 13.5249C48.0501 13.4577 47.8975 13.4241 47.7283 13.4241C47.6101 13.4241 47.4959 13.4429 47.3857 13.4805C47.2754 13.5181 47.176 13.5734 47.0874 13.6466C46.9989 13.7198 46.9249 13.8038 46.866 13.8989C46.807 13.9939 46.7635 14.0858 46.736 14.1748C46.7085 14.2638 46.6808 14.3876 46.6533 14.5458H46.6535Z" fill="white"/>
<path d="M57.2874 16.3617C57.2677 16.5199 57.2203 16.8108 57.1456 17.2342L56.9921 18.1838C56.3739 18.3341 55.7696 18.4093 55.1789 18.4093C54.7496 18.4093 54.3737 18.3657 54.0508 18.2788C53.6688 18.1759 53.3262 17.994 53.0231 17.7329C52.712 17.4639 52.4856 17.1455 52.3439 16.7775C52.1745 16.3464 52.0898 15.8635 52.0898 15.3295C52.0898 14.8389 52.1726 14.3662 52.3379 13.9112C52.5032 13.4564 52.7473 13.0814 53.0703 12.7867C53.393 12.4919 53.7514 12.294 54.1453 12.1932C54.539 12.0924 54.9741 12.0417 55.4506 12.0417C55.7301 12.0417 56.0117 12.0566 56.2951 12.0863C56.5785 12.1161 56.929 12.1804 57.3463 12.2791L57.3581 12.4157C57.3699 12.5581 57.3787 12.7035 57.3847 12.852C57.3905 13.0004 57.4034 13.2348 57.4231 13.5553L57.4584 14.0835C56.8953 13.8856 56.3973 13.7869 55.9641 13.7869C55.6529 13.7869 55.3803 13.8473 55.1461 13.9678C54.9119 14.0886 54.7385 14.2626 54.6264 14.49C54.5143 14.7176 54.4581 14.9818 54.4581 15.2823C54.4581 15.5829 54.5083 15.8421 54.6086 16.0479C54.7089 16.2537 54.8694 16.408 55.0899 16.5109C55.3105 16.6138 55.5525 16.6651 55.8163 16.6651C55.9502 16.6651 56.1088 16.6512 56.2919 16.6235C56.475 16.5959 56.6345 16.5652 56.7702 16.5315C56.9061 16.4979 57.0784 16.4417 57.2869 16.3624L57.2874 16.3617Z" fill="white"/>
<path d="M58.666 18.2548C58.7291 17.6653 58.7747 17.1807 58.8024 16.801C58.8577 16.0056 58.915 15.0821 58.9744 14.0296C59.01 13.3332 59.0366 12.6647 59.0544 12.0238C59.0722 11.383 59.081 10.7597 59.081 10.1544C59.5808 10.1623 59.9879 10.1663 60.3028 10.1663C60.7277 10.1663 61.1291 10.1623 61.5071 10.1544L61.3843 11.5906C61.3649 11.828 61.3337 12.3086 61.2909 13.0326C61.4208 12.8666 61.5269 12.7427 61.6097 12.6617C61.6922 12.5806 61.7838 12.5054 61.8841 12.4361C61.9845 12.3669 62.0869 12.3086 62.1911 12.261C62.2954 12.2136 62.4154 12.172 62.5511 12.1363C62.6868 12.1007 62.8364 12.0731 62.9996 12.0531C63.163 12.0334 63.3311 12.0234 63.5045 12.0234C63.839 12.0234 64.1627 12.061 64.4755 12.136C64.7883 12.2113 65.0548 12.3428 65.2754 12.5307C65.4957 12.7186 65.6453 12.9283 65.7239 13.1597C65.8027 13.3911 65.842 13.6454 65.842 13.9223C65.842 14.0291 65.839 14.1706 65.8332 14.3467C65.8275 14.5227 65.8147 14.7453 65.7951 15.0142L65.6659 17.0142C65.6501 17.2634 65.6414 17.4702 65.6395 17.6344C65.6374 17.7986 65.6365 18.0054 65.6365 18.2546C65.2268 18.2467 64.8347 18.2427 64.4607 18.2427C64.039 18.2427 63.6118 18.2467 63.1785 18.2546C63.2449 17.7285 63.3036 17.1222 63.3542 16.4356C63.4051 15.7492 63.4305 15.2379 63.4305 14.9016C63.4305 14.5297 63.3526 14.2686 63.197 14.1183C63.0414 13.968 62.8355 13.8928 62.5793 13.8928C62.3507 13.8928 62.1477 13.9402 61.9704 14.0352C61.8127 14.1183 61.6747 14.2468 61.5565 14.421C61.4541 14.5673 61.3693 14.7792 61.3025 15.0561C61.2236 15.3924 61.1626 15.889 61.1191 16.5457C61.096 16.9097 61.0729 17.4795 61.0495 18.2548C60.6524 18.2469 60.2806 18.243 59.9345 18.243C59.5884 18.243 59.1617 18.2469 58.666 18.2548Z" fill="white"/>
<path d="M8.15049 28.1328L7.432 28.7133C7.25606 28.4301 7.06348 28.1557 6.85425 27.8907C4.4589 28.1739 2.2391 28.3446 0.195609 28.4024L0 27.6162C0.891401 27.3269 1.85885 26.3412 2.90197 24.6594L3.84331 24.8468C3.22471 25.8523 2.48957 26.748 1.63751 27.5341C2.85354 27.4885 4.38776 27.3665 6.24056 27.1684C5.8554 26.7419 5.38851 26.3047 4.83952 25.8569L5.55801 25.3038C6.67075 26.2728 7.53491 27.2155 8.15049 28.1325V28.1328ZM7.32719 32.9041H6.48119V32.4837H1.58265V32.9041H0.732114V29.0334H7.32719V32.9041ZM6.48119 31.6701V29.8469H1.58265V31.6701H6.48119Z" fill="white"/>
<path d="M19.7105 32.5886H11.5781V31.7431H15.2122V25.9348H11.9784V25.062H19.3378V25.9348H16.104V31.7431H19.7108V32.5886H19.7105Z" fill="white"/>
<path d="M24.2655 29.1067C24.2171 29.9749 24.0895 30.8173 23.8833 31.6339L23.2012 31.2591C23.3741 30.6466 23.4921 29.8822 23.5561 28.9649L24.2655 29.1067ZM24.2746 27.1048L23.6106 27.3561C23.4861 26.5304 23.365 25.9316 23.2466 25.5602L23.9015 25.3135C24.0774 25.929 24.2015 26.5262 24.2746 27.1048ZM26.267 28.4714H25.3256V32.8861H24.525V28.4714H23.256V27.6442H24.525V24.733H25.3256V27.6442H26.267V28.4714ZM26.435 25.6059C26.3835 26.1544 26.2863 26.7376 26.144 27.3561L25.5027 27.1413C25.6302 26.6448 25.7195 26.0704 25.7709 25.4184L26.435 25.6059ZM26.444 31.1173L25.7255 31.3503C25.7165 30.5915 25.6605 29.8529 25.5572 29.134L26.2212 28.9649C26.3457 29.8848 26.4198 30.6025 26.444 31.1173ZM30.9699 32.0817C30.9699 32.3254 30.8863 32.531 30.7198 32.6987C30.553 32.8663 30.1421 32.9317 29.4871 32.8952L29.2007 32.1091L30.0104 32.0999C30.1103 32.0999 30.1606 32.0543 30.1606 31.9627V31.4556H27.5636C27.427 32.0589 27.2147 32.5645 26.9268 32.9728L26.3309 32.374C26.6858 31.8897 26.8633 31.2028 26.8633 30.3129V28.59H30.9703V32.0813L30.9699 32.0817ZM31.3793 28.124H26.5171V27.4568H28.5182V26.9816H26.7899V26.3829H28.5182V25.9533H26.6215V25.277H28.5182V24.7558H29.3324V25.277H31.2382V25.9533H29.3324V26.3829H31.0925V26.9816H29.3324V27.4568H31.3793V28.124ZM30.1602 30.8477V30.3497H27.654C27.654 30.5174 27.648 30.6835 27.6359 30.8477H30.1602ZM30.1602 29.7236V29.2758H27.6631V29.7236H30.1602Z" fill="white"/>
<path d="M41.3954 27.0359C40.2887 28.1296 39.2229 28.9416 38.1979 29.4715C38.4768 29.4898 38.7742 29.4989 39.0893 29.4989C39.7322 29.4989 40.1241 29.4731 40.2653 29.4214C40.4064 29.3697 40.4934 29.0435 40.5267 28.4432L41.3001 28.7219C41.2304 29.2978 41.1355 29.6749 41.0159 29.8528C40.896 30.0311 40.7431 30.1406 40.5566 30.182C40.3701 30.2231 39.9145 30.2436 39.19 30.2436C38.5351 30.2436 38.109 30.2322 37.9119 30.2094C37.7148 30.1866 37.5494 30.0809 37.4163 29.892C36.837 30.1661 36.1458 30.431 35.3421 30.6873L34.8828 30.052C35.7349 29.8023 36.543 29.4898 37.3069 29.1153V26.8211H38.0894V28.6858C38.899 28.2532 39.8056 27.548 40.8093 26.5699L41.3962 27.0359H41.3954ZM37.0742 27.5065C36.5192 28.2775 36.0039 28.8576 35.5279 29.2476L34.9592 28.7128C35.4776 28.3045 35.9827 27.7335 36.4738 26.999L37.0742 27.5062V27.5065ZM42.7734 27.3651H41.9455V26.1859H35.9554V27.3651H35.114V25.4184H38.4617C38.4253 25.2386 38.3463 25.0481 38.2252 24.847L39.103 24.6779C39.2486 25.0071 39.3485 25.2538 39.403 25.418H42.7734V27.3648V27.3651ZM42.1593 32.9039H41.3678V32.68H35.7871V30.8473H36.6058V31.9303H38.5615V30.4998H39.3621V31.9303H41.3678V30.8473H42.1593V32.9039ZM39.6898 27.3743L39.0303 27.74C38.7757 27.3013 38.5453 26.9523 38.3391 26.6934L38.9804 26.3095C39.2653 26.66 39.5017 27.0146 39.6898 27.3743ZM43.042 29.2157L42.4189 29.659C42.0549 29.126 41.5774 28.5516 40.986 27.9361L41.6001 27.4883C42.1915 28.1007 42.672 28.6763 43.042 29.2157Z" fill="white"/>
<path d="M50.3639 25.3722C49.9393 25.5155 49.48 25.6265 48.9859 25.706V26.9171H50.1595V27.7033H48.9859V27.9637C49.474 28.4754 49.8894 29.0057 50.2322 29.5539L49.6544 30.1708C49.4331 29.7261 49.2103 29.3467 48.9859 29.0331V32.9037H48.1762V29.1977C47.7426 30.0477 47.3227 30.6692 46.9163 31.0623L46.4434 30.3221C47.0922 29.6641 47.6548 28.7913 48.1308 27.7037H46.5342V26.9175H48.1762V25.839C47.782 25.8999 47.3681 25.944 46.9345 25.9717L46.5841 25.2129C47.7695 25.1552 48.8962 24.9738 49.9636 24.6689L50.3639 25.3726V25.3722ZM54.6483 30.5457L53.7842 30.6783V32.9224H52.9609V30.7836L50.1592 31.163L50.0865 30.3404L52.9613 29.9473V24.7651H53.7846V29.8378L54.6215 29.7325L54.6487 30.5461L54.6483 30.5457ZM52.5515 28.8821L51.9919 29.5082C51.6007 29.0057 51.0199 28.4693 50.25 27.8998L50.7914 27.292C51.5432 27.8497 52.13 28.3796 52.5515 28.8821ZM52.6835 26.6153L52.124 27.2232C51.6022 26.632 51.0536 26.1204 50.4774 25.6877L51.0551 25.0981C51.6767 25.5824 52.2193 26.0884 52.6835 26.6153Z" fill="white"/>
<path d="M61.1888 28.9192C60.837 29.0838 60.5142 29.2206 60.2199 29.3305V32.0452C60.2199 32.3132 60.1548 32.5203 60.0243 32.6667C59.8937 32.8131 59.6754 32.8883 59.3693 32.8929C59.0629 32.8975 58.7992 32.8952 58.5778 32.886L58.3187 32.0725C58.6463 32.0847 58.9282 32.0908 59.1647 32.0908C59.2222 32.0908 59.2774 32.0642 59.3308 32.0109C59.3837 31.9577 59.4102 31.8977 59.4102 31.8304V29.6415C59.0674 29.7635 58.7129 29.8715 58.3459 29.9661L58.123 29.1982C58.7053 29.0214 59.1344 28.8781 59.4102 28.7687V27.0367H58.2275V26.2414H59.4102V24.7242H60.2199V26.2414H61.075V27.0367H60.2199V28.4444C60.4624 28.3653 60.7291 28.2524 61.0205 28.1061L61.1888 28.9196V28.9192ZM66.3783 32.2964L65.9009 33.0001C65.0216 32.6131 64.2951 32.182 63.7223 31.7068C63.0553 32.2094 62.2577 32.6405 61.33 33.0001L60.8706 32.2508C61.7681 31.9463 62.5233 31.5776 63.1359 31.145C62.6175 30.5721 62.176 29.7681 61.8124 28.7322H61.4942V27.946H63.3409V26.7303H61.367V25.9441H63.3409V24.7558H64.1778V25.9441H66.1335V26.7303H64.1778V27.946H65.9016V28.7322C65.468 29.7802 64.9493 30.5907 64.3462 31.1632C64.8585 31.5897 65.5365 31.9676 66.3795 32.2964H66.3783ZM64.9868 28.7318H62.6989C62.9293 29.4293 63.2857 30.0539 63.7677 30.6055C64.2739 30.0939 64.6803 29.4693 64.9868 28.7318Z" fill="white"/>
</g>
<defs>
<clipPath id="clip0_558_323">
<rect width="66" height="44" fill="white"/>
</clipPath>
</defs>
</svg>
