<svg width="65" height="24" viewBox="0 0 65 24" fill="none" xmlns="http://www.w3.org/2000/svg">
<rect y="0.942139" width="65" height="22.2714" rx="11.1357" fill="#31CD37"/>
<path d="M16.8025 15.5701L16.8025 14.7161L18.6225 14.7161L18.6225 15.1081L18.9305 15.4301L21.1985 15.4301L21.5065 15.1081L21.5065 14.5061L21.1845 14.1701L18.1745 14.1701L16.8585 12.8401L16.8585 11.3141L18.1885 9.97014L21.8285 9.97014L23.1865 11.3421L23.1865 12.1961L21.3665 12.1961L21.3665 11.8041L21.0585 11.4821L18.9865 11.4821L18.6785 11.8041L18.6785 12.3501L19.0005 12.6861L22.0105 12.6861L23.3265 14.0161L23.3265 15.5981L21.9965 16.9421L18.1605 16.9421L16.8025 15.5701ZM24.5184 15.5141L24.5184 11.4261L25.9604 9.97014L29.8944 9.97014L31.3504 11.4261L31.3504 14.0721L26.3664 14.0721L26.3664 14.9681L26.8144 15.4301L29.0964 15.4301L29.5164 14.9961L29.5164 14.6321L31.3364 14.6321L31.3364 15.5421L29.9504 16.9421L25.9324 16.9421L24.5184 15.5141ZM29.5024 12.7841L29.5024 11.9721L29.0264 11.4821L26.8424 11.4821L26.3664 11.9721L26.3664 12.7841L29.5024 12.7841ZM32.8205 9.97014L34.5285 9.97014L34.5285 11.1321L35.6905 9.97014L37.9445 9.97014L39.4985 11.5241L39.4985 16.9421L37.6505 16.9421L37.6505 12.0281L37.1745 11.5381L35.9985 11.5381L34.6685 12.8821L34.6685 16.9421L32.8205 16.9421L32.8205 9.97014ZM40.9656 15.4861L40.9656 11.4261L42.4076 9.97014L45.1796 9.97014L46.0056 10.6841L46.0056 6.94614L47.8536 6.94614L47.8536 16.9421L46.1176 16.9421L46.1176 15.8641L45.0396 16.9421L42.4076 16.9421L40.9656 15.4861ZM44.8716 15.3741L46.0056 14.2121L46.0056 12.3921L45.0536 11.5381L43.3456 11.5381L42.8136 12.0841L42.8136 14.8281L43.3456 15.3741L44.8716 15.3741Z" fill="white"/>
</svg>
