<svg width="100" height="100" viewBox="0 0 100 100" fill="none" xmlns="http://www.w3.org/2000/svg">
<circle cx="50" cy="50" r="50" fill="#CD313F"/>
<path d="M50.0313 25C36.2641 25 25 36.25 25 50C25 63.75 36.2641 75 50.0313 75C56.5591 75 62.6366 72.5832 67.0899 68.4424C67.4928 68.0678 67.4892 67.436 67.0999 67.0473L64.0045 63.9558C63.6141 63.5658 62.9834 63.568 62.5729 63.9368C59.2621 66.9107 54.8591 68.75 49.9687 68.75C39.5807 68.75 31.1952 60.375 31.1952 50C31.1952 39.625 39.5807 31.25 49.9687 31.25C54.8061 31.25 59.0463 33.2016 62.3357 36.2465C62.7387 36.6196 62.7342 37.2505 62.3456 37.6386L57.9362 42.0424C57.3056 42.6722 57.7517 43.75 58.6429 43.75H74C74.5523 43.75 75 43.3023 75 42.75V27.4121C75 26.5215 73.9235 26.0752 73.2933 26.7045L68.2599 31.7317C67.8694 32.1217 67.2383 32.1202 66.8334 31.7453C62.3984 27.6386 56.4927 25 49.9687 25H50.0313Z" fill="#F6F6F6"/>
</svg>
