<svg width="100" height="100" viewBox="0 0 100 100" fill="none" xmlns="http://www.w3.org/2000/svg">
<circle cx="50" cy="50" r="50" fill="#31CD37"/>
<path d="M22.84 55.648L22.84 54.184L25.96 54.184L25.96 54.856L26.488 55.408L30.376 55.408L30.904 54.856L30.904 53.824L30.352 53.248L25.192 53.248L22.936 50.968L22.936 48.352L25.216 46.048L31.456 46.048L33.784 48.4L33.784 49.864L30.664 49.864L30.664 49.192L30.136 48.64L26.584 48.64L26.056 49.192L26.056 50.128L26.608 50.704L31.768 50.704L34.024 52.984L34.024 55.696L31.744 58L25.168 58L22.84 55.648ZM36.0672 55.552L36.0672 48.544L38.5392 46.048L45.2832 46.048L47.7792 48.544L47.7792 53.08L39.2352 53.08L39.2352 54.616L40.0032 55.408L43.9152 55.408L44.6352 54.664L44.6352 54.04L47.7552 54.04L47.7552 55.6L45.3792 58L38.4912 58L36.0672 55.552ZM44.6112 50.872L44.6112 49.48L43.7952 48.64L40.0512 48.64L39.2352 49.48L39.2352 50.872L44.6112 50.872ZM50.2994 46.048L53.2274 46.048L53.2274 48.04L55.2194 46.048L59.0834 46.048L61.7474 48.712L61.7474 58L58.5794 58L58.5794 49.576L57.7634 48.736L55.7474 48.736L53.4674 51.04L53.4674 58L50.2994 58L50.2994 46.048ZM64.2625 55.504L64.2625 48.544L66.7345 46.048L71.4865 46.048L72.9025 47.272L72.9025 40.864L76.0705 40.864L76.0705 58L73.0945 58L73.0945 56.152L71.2465 58L66.7345 58L64.2625 55.504ZM70.9585 55.312L72.9025 53.32L72.9025 50.2L71.2705 48.736L68.3425 48.736L67.4305 49.672L67.4305 54.376L68.3425 55.312L70.9585 55.312Z" fill="white"/>
</svg>
